# xmcd
#
# Track frame offsets: 
#        150
#        28626
#        53645
#        73088
#        89177
#        114454
#        135717
#        158856
#        183717
#        217509
#
# Disc length: 3163 seconds
#
# Revision: 1
# Processed by: cddbd v1.4PL0 Copyright (c) Steve Scherf et al.
# Submitted via: ExactAudioCopy v0.90a11
#
DISCID=8c0c590a
DTITLE=Lee Roy Parnell - Tell The Truth
DYEAR=2001
DGENRE=Blues
TTITLE0=Right Where It Hurts
TTITLE1=Crossin' Over
TTITLE2=Breaking Down Slow (Duet With Bonnie Bramlett)
TTITLE3=South By Southwest (With Delbert McClinton)
TTITLE4=Tell The Truth
TTITLE5=I Declare (With Keb' Mo')
TTITLE6=Brand New Feeling (With The Mississippi Mass Choir)
TTITLE7=Guardian Angel
TTITLE8=Takes What It Takes
TTITLE9=Love's Been Rough On Me
EXTD=
EXTT0=
EXTT1=
EXTT2=
EXTT3=
EXTT4=
EXTT5=
EXTT6=
EXTT7=
EXTT8=
EXTT9=
PLAYORDER=
